<?xml version="1.0" encoding="UTF-8"?>
<svg width="640" height="400" viewBox="0 0 640 400" fill="none" xmlns="http://www.w3.org/2000/svg">
  <rect width="640" height="400" rx="16" fill="#FFC8DC"/>
  <!-- monitor frame -->
  <rect x="80" y="80" width="480" height="240" rx="16" fill="#FFFFFF" stroke="#FFAFCC" stroke-width="6"/>
  <!-- top bar -->
  <rect x="96" y="96" width="448" height="28" rx="8" fill="#BEE0FE"/>
  <circle cx="112" cy="110" r="6" fill="#FFAFCC"/>
  <circle cx="132" cy="110" r="6" fill="#CDB4DA"/>
  <circle cx="152" cy="110" r="6" fill="#A2D2FF"/>
  <!-- sidebar -->
  <rect x="96" y="136" width="120" height="168" rx="10" fill="#FDF7FB" stroke="#FFC8DC"/>
  <rect x="112" y="152" width="88" height="12" rx="6" fill="#A2D2FF"/>
  <rect x="112" y="176" width="72" height="12" rx="6" fill="#CDB4DA"/>
  <rect x="112" y="200" width="60" height="12" rx="6" fill="#A2D2FF"/>
  <rect x="112" y="224" width="92" height="12" rx="6" fill="#FFAFCC"/>
  <rect x="112" y="248" width="64" height="12" rx="6" fill="#CDB4DA"/>
  <!-- dashboard cards -->
  <rect x="232" y="144" width="136" height="80" rx="10" fill="#FDF7FB" stroke="#A2D2FF"/>
  <rect x="384" y="144" width="136" height="80" rx="10" fill="#FDF7FB" stroke="#FFC8DC"/>
  <rect x="232" y="240" width="288" height="56" rx="10" fill="#FDF7FB" stroke="#CDB4DA"/>
  <rect x="248" y="256" width="152" height="12" rx="6" fill="#A2D2FF"/>
  <rect x="248" y="276" width="210" height="12" rx="6" fill="#FFAFCC"/>
  <!-- title -->
  <text x="320" y="48" text-anchor="middle" font-family="Inter, system-ui, -apple-system, Segoe UI, sans-serif" font-size="20" fill="#1a1a1a">BioD Web Development Project</text>
</svg>
